<svg width="50px" height="50px"  viewBox="0 0 512 512"  xmlns="http://www.w3.org/2000/svg"><path d="m512 256c0 141.386719-114.613281 256-256 256s-256-114.613281-256-256 114.613281-256 256-256 256 114.613281 256 256zm0 0" fill="#94d869"/><path d="m275.769531 511.246094c100.046875-7.640625 183.996094-72.792969 218.882813-162.457032l-59.652344-59.652343-21.855469 9.96875-129.765625-129.757813-206.378906 143.132813zm0 0" fill="#629c3d"/><path d="m197.605469 133.515625 40.203125 167.292969h80.398437v-46.6875c0-66.605469-53.988281-120.605469-120.601562-120.605469zm0 0" fill="#dfd1d0"/><path d="m77 254.121094v46.6875h80.40625l40.199219-167.289063c-66.605469-.003906-120.605469 53.996094-120.605469 120.601563zm0 0" fill="#574f4e"/><path d="m249.480469 254.121094v46.6875h-92.035157l40.160157-167.289063c28.652343-.003906 51.875 53.996094 51.875 120.601563zm0 0" fill="#2d2a2a"/><path d="m197.601562 133.515625v167.292969h-51.863281v-46.6875c0-66.605469 23.222657-120.605469 51.863281-120.605469zm0 0" fill="#423d3c"/><path d="m435 289.136719v23.339843h-237.394531l-23.34375-11.667968 23.34375-11.671875zm0 0" fill="#574f4e"/><path d="m77 289.136719h120.605469v23.34375h-120.605469zm0 0" fill="#746a69"/></svg>